# xmcd
#
# Track frame offsets:
#	150
#	10163
#	27068
#	39967
#	59417
#	71311
#	78334
#	86929
#	103997
#	116933
#	127837
#	140846
#
# Disc length: 2102 seconds
#
# Revision: 0
# Processed by: cddbd v1.5.2PL0 Copyright (c) Steve Scherf et al.
# Submitted via: EasyCDDAExtractor 15.3.0.1
#
DISCID=a008340c
DTITLE=Romina Francesca Power - Ascolta, Ti Racconto Di Un Amore...1974
DYEAR=1974
DGENRE=Italia Pop
TTITLE0=Introduzione In Si Minore   ( Strumentale )
TTITLE1=Amore Di Una Notte
TTITLE2=Come Un Bambino
TTITLE3=Riproviamo Ancora
TTITLE4=Le Sirene, Le Balene, Ecc.....
TTITLE5=Incomprensione
TTITLE6=Introduzione In Do Maggiore   ( Strumentale )
TTITLE7=Immenso Addio
TTITLE8=Aria Libera, Aria Chiara
TTITLE9=Tu Mi Dici Che Te Ne Vai
TTITLE10=Svegliarsi E Pensare A Te
TTITLE11=Ninna Nanna
EXTD=
EXTT0=
EXTT1=
EXTT2=
EXTT3=
EXTT4=
EXTT5=
EXTT6=
EXTT7=
EXTT8=
EXTT9=
EXTT10=
EXTT11=
PLAYORDER=
